<svg data-name="图层 1" xmlns="http://www.w3.org/2000/svg" viewBox="0 0 497.33 468.59"><title>030</title><path d="M390.12 160.94c4.42 35.14 24.31 52.16 56.8 54.59-35.14 4.42-52.16 24.31-54.59 56.8-4.42-35.14-24.31-52.16-56.8-54.59 35.14-4.42 52.16-24.31 54.59-56.8zM339.73 256.2c2.43 19.67 13.7 29.39 32 30.72-19.89 2.43-29.39 13.7-30.72 32-2.43-19.89-13.7-29.39-32-30.72 19.89-2.43 29.39-13.7 30.72-32z" fill="#fac300" fill-rule="evenodd"></path><path d="M199.17 65.25a13.3 13.3 0 0 0-13.26 13.26l-.22 272.95h-18.56a11.13 11.13 0 0 0-11.27 11.05v11.29c-10.17 16.58-20.33 33.37-30.72 49.95l-16.35 26.74a7.75 7.75 0 0 0-.46 7.31 7.92 7.92 0 0 0 1.55 2.21l.22.22a7.47 7.47 0 0 0 4.2 2c12.38 2 24.75 3.32 37.13 4.42a568.53 568.53 0 0 0 95 0c12.6-1.11 25-2.65 37.13-4.42a9.3 9.3 0 0 0 4.42-2.21 9.13 9.13 0 0 0 1.55-2.43 7.79 7.79 0 0 0-.44-7.29l-20.55-33.37c-8.84-14.37-17.68-28.73-26.52-43.32l-.22-11.05a10.94 10.94 0 0 0-11.05-11.05h-18.54l.22-272.95a13.3 13.3 0 0 0-13.26-13.26zm70.5 383q-11.93 1.66-23.87 2.65l-13.26-27.85v28.75c-9.72.66-19.67 1.1-29.39 1.1l-2.87-23-5.53 23c-9.06 0-18.12-.44-27.18-.88l6-46.63-19.24 45.74q-12.93-1-25.86-2.65l37.35-61h66.3z" fill="#4FC08D" fill-rule="evenodd"></path><path d="M127.79 127.57c2.43 21.22 14.59 31.38 34 32.93-21.22 2.43-31.38 14.59-32.93 34-2.43-21.22-14.59-31.38-34-32.71 21.22-2.65 31.38-14.59 32.93-34.26zM103.04 228.8c4 32 22.32 47.74 52.16 49.95-32.27 4-48 22.1-50.17 51.94-3.76-32.27-22.1-47.74-51.94-49.95 32.24-3.94 47.74-22.33 49.95-51.94z" fill="#fac300" fill-rule="evenodd"></path><path d="M189.89 248.02l147.19-142.55a14.81 14.81 0 0 1 21.22 0 15.21 15.21 0 0 1 0 21.22L224.15 256.2c43.54 33.15 84.2 69.84 127.3 103.21 12.82 9.95 25.19 18.57 40 21.88 46 10.39 63.21-46.63 71.38-80.45a218.37 218.37 0 0 0 4.86-76.69c-6.63-58.35-35.58-111.16-81.55-147.63a219.62 219.62 0 0 0-162-46.85c-58.35 6.63-111.17 35.58-147.63 81.55a220 220 0 0 0 18.35 295.27c6.19 6.19 7.29 15.47.66 21.44-6.41 6-14.81 4.2-20.77-1.55A249.14 249.14 0 0 1 1.6 276.31a246.33 246.33 0 0 1 8.62-98.35 253.2 253.2 0 0 1 44.2-84.43 249 249 0 0 1 265-83.32 253.18 253.18 0 0 1 84.42 44.2 248.54 248.54 0 0 1 86.41 253.06c-12.38 50.83-40.66 115.81-105 101.44-19.67-4.42-37.13-15.25-52.38-28.51-46.63-39.56-94.37-78-142.77-115.37z" fill="#4FC08D" fill-rule="evenodd"></path></svg>